<svg xmlns="http://www.w3.org/2000/svg" height="40" viewBox="0 -960 960 960" width="40"><path d="M264.666-153.029q-30.661 0-50.816-20.168-20.155-20.169-20.155-50.851 0-21.401 11.319-40.452t31.1-26.949l162.248-64.305v-106.174q-62.377 70.102-130.978 105.682-68.602 35.579-154.355 35.579v-81.174q69.974 0 126.422-29.58 56.447-29.579 99.563-83.782l56.667-65.232q11.578-13.986 27.316-22.029 15.737-8.044 34.336-8.044h45.334q18.599 0 34.67 8.326 16.07 8.326 27.649 22.312l56.666 65.797q45.116 52.87 100.231 82.551 55.114 29.681 125.088 29.681v81.174q-85.087 0-154.021-35.579-68.935-35.58-131.312-105.682v106.174l162.71 64.305q19.319 7.898 30.638 26.93 11.319 19.031 11.319 40.408 0 30.648-20.155 50.865-20.155 20.217-50.816 20.217H397.333V-174q0-27.696 16.805-43.181 16.804-15.485 41.862-15.485h128.667q8.333 0 14.166-5.834 5.834-5.833 5.834-14.166 0-8.334-5.834-14.167-5.833-5.833-14.166-5.833H456q-42.768 0-70.051 27.666-27.282 27.667-27.282 71v20.971h-94.001Zm215.427-510.812q-34.296 0-58.347-24.096-24.051-24.096-24.051-58.586 0-34.335 23.958-58.32 23.957-23.984 58.254-23.984 34.296 0 58.347 24.035 24.051 24.036 24.051 58.443 0 34.406-23.958 58.457-23.957 24.051-58.254 24.051Z"/></svg>