<svg xmlns="http://www.w3.org/2000/svg" height="40" viewBox="0 -960 960 960" width="40"><path d="M284.525-73.695q-30.858 0-52.691-21.975Q210-117.645 210-148.503q0-30.859 21.975-52.692t52.833-21.833q30.859 0 52.692 21.975 21.833 21.974 21.833 52.833 0 30.858-21.975 52.691-21.974 21.834-52.833 21.834Zm400 0q-30.858 0-52.691-21.975Q610-117.645 610-148.503q0-30.859 21.975-52.692t52.833-21.833q30.859 0 52.692 21.975 21.833 21.974 21.833 52.833 0 30.858-21.975 52.691-21.974 21.834-52.833 21.834ZM250.537-727.03l94.594 197.188H628.58l107.565-197.188H250.537Zm-40.204-80.609h571.295q31.274 0 47.591 27.805 16.317 27.804.694 56.341L703.319-494.435q-12.13 20.652-31.387 33.21-19.258 12.558-42.882 12.558H332.102l-47.667 89.029h481.87v80.609H278q-48.087 0-69.971-35.601-21.884-35.602.232-75.138l58.971-107.565-145.565-309.029H40.362v-80.609H173l37.333 79.333Zm134.798 277.797H628.58 345.131Z"/></svg>